<?xml version="1.0" encoding="UTF-8" standalone="no"?><!DOCTYPE svg PUBLIC "-//W3C//DTD SVG 1.1//EN" "http://www.w3.org/Graphics/SVG/1.1/DTD/svg11.dtd"><svg width="100%" height="100%" viewBox="0 0 107 60" version="1.1" xmlns="http://www.w3.org/2000/svg" xmlns:xlink="http://www.w3.org/1999/xlink" xml:space="preserve" xmlns:serif="http://www.serif.com/" style="fill-rule:evenodd;clip-rule:evenodd;stroke-linejoin:round;stroke-miterlimit:1.41421;"><rect id="sans-entourage" serif:id="sans entourage" x="0.181" y="-0.244" width="107.023" height="59.341" style="fill:none;"/><g><path d="M19.627,48.136c0,0 15.75,5.883 23.978,2.933c2.481,-0.889 -4.867,4.615 -5.229,4.719c-1.698,0.491 8.783,0.423 14.03,-6.632c0.862,-1.16 -0.51,4.464 -0.51,4.464c0,0 6.788,-4.258 7.525,-10.841c0.231,-2.067 0.51,3.698 0.51,3.698c0,0 3.54,-4.922 2.806,-9.438c-0.292,-1.795 1.287,0.519 1.403,1.786c0.362,3.98 0.796,-4.152 -1.276,-8.801c-0.746,-1.676 2.734,3.537 2.679,2.934c-0.333,-3.619 0.245,-7.878 -6.377,-12.882c-1.371,-1.036 6.632,-0.128 6.632,-0.128c0,0 -4.968,-4.616 -8.546,-4.081c-3.577,0.535 2.341,-3.485 6.505,-2.806c1.787,0.291 -3.295,-3.568 -12.116,-2.551c-0.051,0.006 2.87,-2.886 1.365,-8.361c-0.003,-0.009 -0.098,-0.004 -0.122,0.099c-0.836,3.659 -3.465,4.959 -4.119,5.053c-13.887,1.995 -12.211,6.907 -12.376,9.354c7.926,-5.307 11.288,6.279 6.975,11.004c-1.983,2.172 -5.625,2.238 -12.546,0.544c-11.284,-3.223 -25.389,-14.788 -28.92,-22.922c-0.762,-1.756 6.618,27.11 22.321,32.268c0.366,0.121 -10.017,-0.398 -14.03,-3.954c-0.82,-0.726 4.839,8.594 14.339,12.669c-0.131,0.815 -3.138,1.406 -4.901,1.872Z" style="fill:#4651ea;"/></g><g><path d="M87.499,48.136c0,0 -15.75,5.883 -23.978,2.933c-2.481,-0.889 4.868,4.615 5.229,4.719c1.698,0.491 -8.783,0.423 -14.03,-6.632c-0.862,-1.16 0.511,4.464 0.511,4.464c0,0 -6.788,-4.258 -7.526,-10.841c-0.231,-2.067 -0.51,3.698 -0.51,3.698c0,0 -3.54,-4.922 -2.806,-9.438c0.292,-1.795 -1.287,0.519 -1.403,1.786c-0.362,3.98 -0.795,-4.152 1.276,-8.801c0.747,-1.676 -2.734,3.537 -2.679,2.934c0.333,-3.619 -0.245,-7.878 6.378,-12.882c1.37,-1.036 -6.633,-0.128 -6.633,-0.128c0,0 4.969,-4.616 8.546,-4.081c3.577,0.535 -2.34,-3.485 -6.505,-2.806c-1.787,0.291 3.295,-3.568 12.117,-2.551c0.05,0.006 -2.871,-2.886 -1.366,-8.361c0.003,-0.009 0.099,-0.004 0.122,0.099c0.837,3.659 3.465,4.959 4.119,5.053c13.887,1.995 12.211,6.907 12.377,9.354c-7.927,-5.307 -11.289,6.279 -6.975,11.004c1.983,2.172 5.624,2.238 12.546,0.544c11.283,-3.223 25.388,-14.788 28.919,-22.922c0.762,-1.756 -6.617,27.11 -22.32,32.268c-0.367,0.121 10.016,-0.398 14.03,-3.954c0.82,-0.726 -4.839,8.594 -14.339,12.669c0.13,0.815 3.137,1.406 4.9,1.872Z" style="fill:#e69014;"/></g></svg>