<?xml version="1.0" encoding="UTF-8" standalone="no"?><!DOCTYPE svg PUBLIC "-//W3C//DTD SVG 1.1//EN" "http://www.w3.org/Graphics/SVG/1.1/DTD/svg11.dtd"><svg width="100%" height="100%" viewBox="0 0 107 58" version="1.1" xmlns="http://www.w3.org/2000/svg" xmlns:xlink="http://www.w3.org/1999/xlink" xml:space="preserve" xmlns:serif="http://www.serif.com/" style="fill-rule:evenodd;clip-rule:evenodd;stroke-linejoin:round;stroke-miterlimit:1.41421;"><rect id="monochrome" x="0.181" y="-0.519" width="107.023" height="59.341" style="fill:none;"/><g><path d="M19.627,47.861c0,0 15.75,5.884 23.978,2.933c2.481,-0.889 -4.867,4.615 -5.229,4.72c-1.698,0.491 8.783,0.422 14.03,-6.633c0.862,-1.16 -0.51,4.464 -0.51,4.464c0,0 6.788,-4.258 7.525,-10.841c0.231,-2.066 0.51,3.699 0.51,3.699c0,0 3.54,-4.923 2.806,-9.438c-0.292,-1.796 1.287,0.518 1.403,1.785c0.362,3.98 0.796,-4.152 -1.276,-8.8c-0.746,-1.677 2.734,3.536 2.679,2.933c-0.333,-3.619 0.245,-7.877 -6.377,-12.882c-1.371,-1.035 6.632,-0.127 6.632,-0.127c0,0 -4.968,-4.617 -8.546,-4.082c-3.577,0.535 2.341,-3.484 6.505,-2.806c1.787,0.291 -3.295,-3.567 -12.116,-2.551c-0.051,0.006 2.87,-2.886 1.365,-8.361c-0.003,-0.008 -0.098,-0.004 -0.122,0.099c-0.836,3.659 -3.465,4.959 -4.119,5.053c-13.887,1.995 -12.211,6.907 -12.376,9.354c7.926,-5.307 11.288,6.279 6.975,11.004c-1.983,2.172 -5.625,2.238 -12.546,0.544c-11.284,-3.222 -25.389,-14.788 -28.92,-22.922c-0.762,-1.756 6.618,27.11 22.321,32.269c0.366,0.12 -10.017,-0.399 -14.03,-3.954c-0.82,-0.727 4.839,8.593 14.339,12.668c-0.131,0.815 -3.138,1.406 -4.901,1.872Z" style="fill:#565656;"/></g><g><path d="M87.499,47.861c0,0 -15.75,5.884 -23.978,2.933c-2.481,-0.889 4.868,4.615 5.229,4.72c1.698,0.491 -8.783,0.422 -14.03,-6.633c-0.862,-1.16 0.511,4.464 0.511,4.464c0,0 -6.788,-4.258 -7.526,-10.841c-0.231,-2.066 -0.51,3.699 -0.51,3.699c0,0 -3.54,-4.923 -2.806,-9.438c0.292,-1.796 -1.287,0.518 -1.403,1.785c-0.362,3.98 -0.795,-4.152 1.276,-8.8c0.747,-1.677 -2.734,3.536 -2.679,2.933c0.333,-3.619 -0.245,-7.877 6.378,-12.882c1.37,-1.035 -6.633,-0.127 -6.633,-0.127c0,0 4.969,-4.617 8.546,-4.082c3.577,0.535 -2.34,-3.484 -6.505,-2.806c-1.787,0.291 3.295,-3.567 12.117,-2.551c0.05,0.006 -2.871,-2.886 -1.366,-8.361c0.003,-0.008 0.099,-0.004 0.122,0.099c0.837,3.659 3.465,4.959 4.119,5.053c13.887,1.995 12.211,6.907 12.377,9.354c-7.927,-5.307 -11.289,6.279 -6.975,11.004c1.983,2.172 5.624,2.238 12.546,0.544c11.283,-3.222 25.388,-14.788 28.919,-22.922c0.762,-1.756 -6.617,27.11 -22.32,32.269c-0.367,0.12 10.016,-0.399 14.03,-3.954c0.82,-0.727 -4.839,8.593 -14.339,12.668c0.13,0.815 3.137,1.406 4.9,1.872Z" style="fill:#828080;"/></g></svg>