<?xml version="1.0" encoding="UTF-8" standalone="no"?><!DOCTYPE svg PUBLIC "-//W3C//DTD SVG 1.1//EN" "http://www.w3.org/Graphics/SVG/1.1/DTD/svg11.dtd"><svg width="100%" height="100%" viewBox="0 0 401 401" version="1.1" xmlns="http://www.w3.org/2000/svg" xmlns:xlink="http://www.w3.org/1999/xlink" xml:space="preserve" style="fill-rule:evenodd;clip-rule:evenodd;stroke-linejoin:round;stroke-miterlimit:1.41421;"><rect id="Plan-de-travail4" x="0.68" y="0.061" width="400" height="400" style="fill:none;"/><g><rect x="100.68" y="51.155" width="18.483" height="297.921" style="fill:#5c74ff;"/><rect x="282.198" y="52.14" width="18.483" height="297.921" style="fill:#5c74ff;"/><path d="M100.979,50.061l0,14.512l199.701,0l0,-14.512l-199.701,0Z" style="fill:#5c74ff;"/><path d="M100.83,335.549l0,14.512l199.701,0l0,-14.512l-199.701,0Z" style="fill:#5c74ff;"/></g><path d="M300.68,50.061l-128.185,-28.894l0,359.382l128.185,-30.488l0,-300" style="fill:#5c74ff;"/><ellipse cx="204.725" cy="187.934" rx="13.03" ry="12.924" style="fill:#75c7fd;"/><path d="M29.778,206.284l0,-36.7l71.442,0l0,-34.078l52.428,52.428l-52.428,52.428l0,-34.078l-71.442,0Z" style="fill:#75c7fd;"/></svg>