<?xml version="1.0" encoding="UTF-8" standalone="no"?><!DOCTYPE svg PUBLIC "-//W3C//DTD SVG 1.1//EN" "http://www.w3.org/Graphics/SVG/1.1/DTD/svg11.dtd"><svg width="100%" height="100%" viewBox="0 0 170 170" version="1.1" xmlns="http://www.w3.org/2000/svg" xmlns:xlink="http://www.w3.org/1999/xlink" xml:space="preserve" style="fill-rule:evenodd;clip-rule:evenodd;stroke-linejoin:round;stroke-miterlimit:1.41421;"><rect id="Plan-de-travail1" x="0" y="0" width="170" height="170" style="fill:none;"/><clipPath id="_clip1"><rect x="0" y="0" width="170" height="170"/></clipPath><g clip-path="url(#_clip1)"><path d="M103.989,97.513l23.518,0l42.493,72.487l-110.677,0l44.666,-72.487" style="fill:#808080;"/><path d="M93.13,116.789l-14.152,-9.004l-2.45,-72.071c0,0 10.019,3.237 14.424,-11.29c9.409,-31.026 -29.43,-34.069 -23.484,0c0.598,3.431 0,2.554 0,2.554l-38.424,0l-17.405,44.055l7.468,8.335l1.534,-2.092l9.324,6.166l0,5.767l-29.965,70.303l9.759,7.623l29.295,-65.046l5.677,26.708l0,38.338c0,0 12.959,0.404 12.959,0c0,-0.403 0,-38.338 0,-38.338l-4.165,-26.708l33.842,22.733l5.763,-8.033" style="fill:#808080;"/><path d="M66.367,66.26l0,32.613l-9.457,-5.28l9.457,-27.333Z" style="fill:url(#_Linear2);"/><path d="M23.887,70.38l9.205,5.928l11.033,-31.548l-11.033,0l-9.205,25.62Z" style="fill:url(#_Linear3);"/></g><defs><linearGradient id="_Linear2" x1="0" y1="0" x2="1" y2="0" gradientUnits="userSpaceOnUse" gradientTransform="matrix(9.45721,0,0,32.6127,56.9096,82.5665)"><stop offset="0" style="stop-color:#fff;stop-opacity:1"/><stop offset="1" style="stop-color:#fff;stop-opacity:1"/></linearGradient><linearGradient id="_Linear3" x1="0" y1="0" x2="1" y2="0" gradientUnits="userSpaceOnUse" gradientTransform="matrix(20.2378,0,0,31.5474,23.8869,60.5339)"><stop offset="0" style="stop-color:#fff;stop-opacity:1"/><stop offset="1" style="stop-color:#fff;stop-opacity:1"/></linearGradient></defs></svg>